# xmcd CD database file
#
# Track frame offsets:
#	150
#	16013
#	30959
#	53353
#
# Disc length: 941 seconds
#
# Revision: 0
# Processed by: cddbd v1.5.2PL0 Copyright (c) Steve Scherf et al.
# Submitted via: CDex 1.51
#
DISCID=1803ab04
DTITLE=Mad Whiskey Grin - Demo Disc
DYEAR=1900
DGENRE=Blues
TTITLE0=Those Fierce, Dark-Eyed Daughters (ii)
TTITLE1=Shimmer and Thrum
TTITLE2=Blood RIghteous
TTITLE3=Kobum
EXTD=
EXTT0=
EXTT1=
EXTT2=
EXTT3=
PLAYORDER=
